<svg xmlns="http://www.w3.org/2000/svg"  viewBox="0 0 40 40" width="80px" height="80px"><path fill="#c74343" d="M35.51,15.207c0.108-5.885,1.419-8.444,2.083-9.369c0.359,0.721,0.907,2.244,0.907,4.829 C38.5,13.244,36.572,14.636,35.51,15.207z"/><path fill="#ab3434" d="M37.505,6.969C37.761,7.777,38,8.983,38,10.667c0,1.78-1.042,2.94-1.962,3.616 C36.203,10.381,36.923,8.156,37.505,6.969 M37.667,5c0,0-2.664,2-2.664,10.99c0,0,3.997-1.435,3.997-5.324 C39,6.556,37.667,5,37.667,5L37.667,5z"/><path fill="#99c99e" d="M20,36.5c-4.531,0-8.588-1.832-10.586-4.78l-0.096-0.142l-0.163-0.054 C3.331,29.619,0.5,26.83,0.5,23c0-2.501,1.556-4.65,4.757-6.571l0.22-0.132l0.021-0.256C6.104,8.774,12.202,3.5,20,3.5 s13.896,5.274,14.502,12.541l0.02,0.243l0.204,0.134C38.117,18.64,39.5,20.546,39.5,23c0,3.795-2.832,6.584-8.658,8.525 l-0.152,0.051l-0.095,0.131C28.551,34.529,24.194,36.5,20,36.5z"/><path fill="#5e9c76" d="M20,4c7.531,0,13.42,5.082,14.003,12.083l0.04,0.486l0.408,0.267C37.682,18.953,39,20.739,39,23 c0,3.552-2.72,6.186-8.316,8.051l-0.305,0.102l-0.189,0.26C28.235,34.114,24.044,36,20,36c-4.369,0-8.266-1.748-10.172-4.561 l-0.192-0.283L9.311,31.05C3.719,29.219,1,26.586,1,23c0-2.311,1.477-4.32,4.514-6.143l0.439-0.264l0.043-0.511 C6.58,9.082,12.469,4,20,4 M20,3C11.979,3,5.633,8.401,5,16c-3.166,1.9-5,4.15-5,7c0,4.222,3.195,7.1,9,9c2.216,3.272,6.567,5,11,5 c4.222,0,8.784-1.939,11-5c5.699-1.9,9-4.778,9-9c0-2.955-1.939-4.995-5-7C34.367,8.401,28.021,3,20,3L20,3z"/><path fill="#f78f8f" d="M11.764,18.482C8.801,18.251,7.227,17.058,5.833,16c-0.104-0.079-0.207-0.157-0.309-0.233 c0.243-2.355,1.093-4.586,2.465-6.474C9.334,8.709,10.933,8.5,12,8.5c1.586,0,2.906,0.788,4.184,1.55 c1.25,0.746,2.43,1.45,3.816,1.45s2.566-0.704,3.816-1.45C25.094,9.288,26.414,8.5,28,8.5c0.949,0,2.722,0.348,4.108,0.933 c1.334,1.884,2.129,4.013,2.368,6.334c-0.103,0.076-0.205,0.154-0.31,0.233c-1.391,1.055-2.962,2.247-5.912,2.481 C27.458,17.409,24.547,14.5,20,14.5C15.236,14.5,12.502,17.53,11.764,18.482z"/><path fill="#c74343" d="M28,9c0.87,0,2.477,0.311,3.783,0.839c1.181,1.708,1.907,3.622,2.164,5.7 c-0.028,0.021-0.055,0.042-0.083,0.063c-1.293,0.98-2.747,2.084-5.385,2.357C27.418,16.657,24.498,14,20,14 c-4.496,0-7.417,2.657-8.479,3.959c-2.638-0.273-4.093-1.376-5.385-2.357c-0.028-0.021-0.055-0.042-0.082-0.063 c0.265-2.119,1.04-4.123,2.26-5.841C9.561,9.186,11.016,9,12,9c1.448,0,2.653,0.719,3.928,1.48C17.181,11.227,18.476,12,20,12 s2.819-0.773,4.072-1.52C25.347,9.719,26.552,9,28,9 M28,8c-3.272,0-5.362,3-8,3s-4.728-3-8-3c-1.061,0-2.829,0.204-4.335,0.889 C6.181,10.89,5.225,13.302,5,16c1.583,1.161,3.306,2.789,7,3c0.026-0.049,2.691-4,8-4c5.14,0,7.893,3.797,8,4 c3.694-0.211,5.417-1.839,7-3c-0.22-2.636-1.139-4.998-2.565-6.972C30.955,8.378,29.051,8,28,8L28,8z"/><path fill="#f78f8f" d="M35.139,15.372C34.884,14.676,34.5,12.867,34.5,11c0-0.789,0.481-3.372,0.807-4.999 c0.826,0.903,2.182,2.729,2.193,5.002C37.499,13.685,35.97,14.907,35.139,15.372z"/><path fill="#c74343" d="M35.595,7.13C36.278,8.062,36.992,9.414,37,11c0,1.915-0.852,3.001-1.573,3.577 C35.222,13.744,35,12.396,35,11C35,10.433,35.291,8.726,35.595,7.13 M35,5c0,0-1,4.778-1,6c0,2.419,0.653,5.011,0.966,5.011 c0.012,0,0.023-0.004,0.034-0.011c0.349-0.153,2.999-1.356,3-5C37.982,7.46,35,5,35,5L35,5z"/><path fill="#5e9c76" d="M20,29c-6.045,0-9.298-2.597-9.328-2.623l0.646-0.764C11.347,25.638,14.349,28,20,28	s8.653-2.362,8.683-2.387l0.646,0.764C29.298,26.403,26.045,29,20,29z"/><path fill="#fff" d="M13.701,16.481c-4.07-0.058-5.942-1.572-6.021-1.637l-0.406-0.337l0.358-0.387 c0.099-0.107,2.458-2.621,5.7-2.621c2.306,0,3.708,1.224,4.945,2.303l0.777,0.678l-0.997,0.205 c-1.455,0.273-2.823,0.848-4.066,1.707l-0.131,0.091L13.701,16.481z"/><path fill="#c74343" d="M13.333,12c2.128,0,3.41,1.128,4.633,2.194l0,0c-1.735,0.326-3.161,1.029-4.258,1.787 C9.768,15.925,8,14.46,8,14.46S10.273,12,13.333,12 M13.333,11c-3.458,0-5.963,2.667-6.068,2.781l-0.716,0.775l0.812,0.673 c0.083,0.069,2.088,1.692,6.332,1.752l0.32,0.005l0.263-0.182c1.185-0.819,2.488-1.367,3.874-1.627l2.027-0.381l-1.555-1.356 C17.366,12.344,15.824,11,13.333,11L13.333,11z"/><path d="M13.5 13A1.5 1.5 0 1 0 13.5 16A1.5 1.5 0 1 0 13.5 13Z"/><g><path fill="#fff" d="M25.974,16.393c-1.243-0.86-2.611-1.435-4.065-1.707l-1.015-0.189l0.777-0.679 c1.255-1.094,2.657-2.317,4.962-2.317c3.242,0,5.602,2.514,5.7,2.621l0.358,0.387l-0.406,0.337 c-0.078,0.064-1.95,1.579-6.021,1.637l-0.16,0.002L25.974,16.393z"/><path fill="#c74343" d="M26.633,12c3.061,0,5.333,2.46,5.333,2.46s-1.768,1.466-5.708,1.522 c-1.097-0.758-2.523-1.461-4.258-1.787l0,0C23.223,13.128,24.505,12,26.633,12 M26.633,11c-2.491,0-4.032,1.343-5.27,2.423 l-1.555,1.356l2.008,0.398c1.386,0.26,2.689,0.808,3.874,1.627l0.263,0.182l0.32-0.005c4.244-0.06,6.249-1.683,6.332-1.752 l0.812-0.673l-0.716-0.775C32.596,13.667,30.091,11,26.633,11L26.633,11z"/></g><path d="M26.466 13A1.5 1.5 0 1 0 26.466 16A1.5 1.5 0 1 0 26.466 13Z"/><path fill="#5e9c76" d="M20,14c-5.057,0-8.122,3.361-8.789,4.375l-0.486,0.486C11.123,18.926,11.546,18.974,12,19	c0.026-0.049,2.691-4,8-4c1.285,0,2.421,0.237,3.403,0.596c0.491,0.18,0.944,0.39,1.358,0.616c0.207,0.113,0.404,0.23,0.592,0.349	c0.75,0.477,1.345,0.989,1.779,1.421C27.675,18.522,27.967,18.937,28,19c0.454-0.026,0.877-0.074,1.275-0.14l-0.486-0.486	C28.122,17.36,25.058,14,20,14z"/></svg>