<svg xmlns="http://www.w3.org/2000/svg"  viewBox="0 0 100 100" width="100px" height="100px"><path fill="#ee3e54" d="M13,27c-1.105,0-2,0.895-2,2s0.895,2,2,2s2-0.895,2-2S14.105,27,13,27z"/><path fill="#f1bc19" d="M77,12c-0.551,0-1,0.449-1,1s0.449,1,1,1s1-0.449,1-1S77.551,12,77,12z"/><path fill="#fce0a2" d="M50,13c-20.434,0-37,16.566-37,37s16.566,37,37,37s37-16.566,37-37S70.434,13,50,13z"/><path fill="#f1bc19" d="M83,11c-2.211,0-4,1.789-4,4s1.789,4,4,4s4-1.789,4-4S85.211,11,83,11z"/><path fill="#ee3e54" d="M87,22c-1.105,0-2,0.895-2,2s0.895,2,2,2s2-0.895,2-2S88.105,22,87,22z"/><path fill="#fbcd59" d="M81,74c-1.105,0-2,0.895-2,2s0.895,2,2,2s2-0.895,2-2S82.105,74,81,74z M15,59 c-2.211,0-4,1.789-4,4s1.789,4,4,4s4-1.789,4-4S17.211,59,15,59z"/><path fill="#ee3e54" d="M25,85c-1.105,0-2,0.895-2,2s0.895,2,2,2s2-0.895,2-2S26.105,85,25,85z"/><path fill="#fff" d="M18.5,48c-1.379,0-2.5,1.121-2.5,2.5s1.121,2.5,2.5,2.5s2.5-1.121,2.5-2.5S19.879,48,18.5,48z"/><path fill="#f1bc19" d="M21,66c-0.551,0-1,0.449-1,1s0.449,1,1,1s1-0.449,1-1S21.551,66,21,66z"/><path fill="#fff" d="M80,33c-0.551,0-1,0.449-1,1s0.449,1,1,1s1-0.449,1-1S80.551,33,80,33z"/><g><path fill="#ee3e54" d="M42.965,78.3c-0.544,0-1.074-0.215-1.457-0.591l-3.951-3.875c-2.121-2.079-3.524-4.708-4.061-7.6 l-1.18-6.362c-0.841-9.101-1.06-17.15,0.475-28.943c0.352-2.708,1.947-5.1,4.267-6.401C40.173,22.782,43.424,21.7,50,21.7 c6.56,0,9.804,1.082,12.912,2.828c2.315,1.301,3.907,3.693,4.258,6.401c1.53,11.787,1.313,19.838,0.465,29.007l-1.168,6.298 c-0.536,2.893-1.938,5.522-4.053,7.601l-3.942,3.875c-0.388,0.381-0.904,0.59-1.453,0.59H42.965z"/><path fill="#472b29" d="M50,22.4c6.436,0,9.482,1.004,12.569,2.739c2.123,1.192,3.584,3.391,3.907,5.88 c1.519,11.698,1.306,19.696,0.468,28.789l-1.165,6.299c-0.509,2.751-1.842,5.25-3.855,7.229l-3.943,3.875 c-0.252,0.248-0.603,0.39-0.962,0.39H50h-7.036c-0.361,0-0.714-0.143-0.967-0.391l-3.951-3.875 c-2.017-1.979-3.353-4.478-3.863-7.229l-1.168-6.298c-0.84-9.093-1.053-17.09,0.468-28.788c0.324-2.489,1.788-4.688,3.915-5.88 C40.494,23.404,43.548,22.4,50,22.4 M50,21c-6.399,0-9.815,0.973-13.284,2.918c-2.567,1.439-4.245,4.044-4.619,6.921 C30.619,42.198,30.71,50.099,31.628,60l1.179,6.361c0.56,3.021,2.046,5.802,4.259,7.973l3.951,3.875 C41.534,78.715,42.234,79,42.964,79H50h7.019c0.729,0,1.428-0.285,1.943-0.791l3.943-3.875c2.209-2.171,3.691-4.952,4.25-7.973 L68.332,60c0.916-9.901,1.007-17.802-0.467-29.161c-0.373-2.876-2.048-5.482-4.61-6.921C59.792,21.973,56.386,21,50,21L50,21z"/><polygon fill="#472b29" points="34.25,57.438 38.875,70.25 41.5,72.5 58.5,72.5 61.062,70.375 65.562,56.75"/><path fill="#eab436" d="M66,43.191l1-11.49C65,28.83,62,25.957,56,25l-2,13.404h-4h-4.011L43.985,25 c-6.013,0.957-9.02,3.83-11.024,6.702l1.002,11.49l-2.004,8.617c3.007,9.574,7.015,8.617,7.015,16.277L41.98,70l1.002-1.915H50h7 L58,70l3-1.915c0-7.66,4-6.702,7-16.277L66,43.191z"/><path fill="#472b29" d="M41.98,70.5c-0.095,0-0.188-0.027-0.269-0.078l-3.007-1.915c-0.145-0.092-0.231-0.251-0.231-0.422 c0-3.992-1.108-5.514-2.644-7.621c-1.313-1.803-2.949-4.047-4.349-8.506c-0.027-0.085-0.03-0.176-0.011-0.263l1.987-8.54 l-0.995-11.41c-0.01-0.117,0.021-0.233,0.088-0.33c1.864-2.672,4.84-5.872,11.354-6.909c0.131-0.021,0.266,0.011,0.375,0.091 c0.107,0.079,0.179,0.198,0.198,0.329l1.941,12.978h7.149l1.937-12.978c0.02-0.132,0.091-0.251,0.198-0.33 c0.108-0.079,0.241-0.112,0.375-0.09c6.501,1.037,9.471,4.238,11.331,6.91c0.067,0.096,0.098,0.212,0.088,0.329l-0.993,11.411 l1.982,8.54c0.02,0.087,0.017,0.177-0.01,0.262c-1.397,4.459-3.029,6.703-4.34,8.506c-1.531,2.106-2.638,3.628-2.638,7.621 c0,0.171-0.087,0.33-0.231,0.421l-3,1.915c-0.117,0.075-0.264,0.098-0.397,0.062c-0.136-0.036-0.249-0.127-0.314-0.252 l-0.859-1.646H43.285l-0.861,1.647c-0.065,0.124-0.179,0.215-0.314,0.251C42.067,70.494,42.023,70.5,41.98,70.5z M39.472,67.81 l2.318,1.476l0.749-1.433c0.087-0.165,0.257-0.268,0.443-0.268H57c0.187,0,0.357,0.104,0.443,0.269l0.747,1.431l2.312-1.475 c0.052-4.116,1.28-5.807,2.827-7.934c1.32-1.816,2.815-3.873,4.153-8.087l-1.97-8.484c-0.012-0.051-0.016-0.104-0.011-0.156 l0.984-11.308c-1.705-2.409-4.399-5.224-10.067-6.261l-1.925,12.899c-0.036,0.245-0.246,0.426-0.494,0.426h-8.011 c-0.248,0-0.458-0.181-0.494-0.426l-1.93-12.899c-5.682,1.036-8.382,3.852-10.091,6.261l0.986,11.308 c0.005,0.052,0.001,0.105-0.011,0.157l-1.975,8.484c1.341,4.214,2.84,6.271,4.163,8.087C38.188,62.003,39.42,63.693,39.472,67.81z"/><polygon fill="#472b29" points="62.416,73.277 61.584,72.723 63.536,69.795 67.515,53.879 68.485,54.121 64.416,70.277"/><path fill="#472b29" d="M57.319,68.915l-0.473-0.164c1.188-3.433,2.861-5.399,4.798-7.676 c1.168-1.373,2.376-2.792,3.646-4.714l0.418,0.276c-1.288,1.947-2.561,3.443-3.684,4.762 C60.121,63.638,58.477,65.571,57.319,68.915z"/><path fill="#472b29" d="M65.5,56.75c-0.048,0-0.096-0.014-0.139-0.042l-3-2c-0.069-0.046-0.111-0.125-0.111-0.208v-2 c0-0.138,0.112-0.25,0.25-0.25s0.25,0.112,0.25,0.25v1.866l2.889,1.926c0.115,0.077,0.146,0.232,0.069,0.347 C65.66,56.711,65.58,56.75,65.5,56.75z"/><path fill="#472b29" d="M63.542,46.833c-0.01,0-0.021-0.001-0.031-0.002c-0.138-0.017-0.234-0.143-0.217-0.28l0.345-2.712 c0.017-0.136,0.126-0.233,0.279-0.217c0.138,0.017,0.234,0.143,0.217,0.28l-0.345,2.712 C63.774,46.741,63.666,46.833,63.542,46.833z"/><path fill="#472b29" d="M64.106,42.398c-0.01,0-0.021-0.001-0.031-0.002c-0.138-0.017-0.234-0.143-0.217-0.28l0.378-2.972 l-4.703-4.619c-0.048-0.047-0.075-0.111-0.075-0.178v-1.722c0-0.138,0.112-0.25,0.25-0.25s0.25,0.112,0.25,0.25v1.617l4.717,4.633 c0.056,0.055,0.083,0.133,0.073,0.21l-0.394,3.095C64.339,42.306,64.23,42.398,64.106,42.398z"/><path fill="#472b29" d="M59.708,31c-0.138,0-0.25-0.112-0.25-0.25v-4.875c0-0.138,0.112-0.25,0.25-0.25 s0.25,0.112,0.25,0.25v4.875C59.958,30.888,59.846,31,59.708,31z"/><path fill="#472b29" d="M53.25,46.375c-0.01,0-0.021-0.001-0.031-0.002c-0.137-0.017-0.234-0.142-0.217-0.279l1-8 c0.017-0.136,0.129-0.234,0.279-0.217c0.137,0.017,0.234,0.142,0.217,0.279l-1,8C53.482,46.282,53.375,46.375,53.25,46.375z"/><path fill="#472b29" d="M36.667,47.458c-0.124,0-0.231-0.092-0.248-0.219l-0.959-7.53c-0.01-0.077,0.018-0.155,0.073-0.21 l0.91-0.894c0.097-0.096,0.257-0.096,0.354,0.003c0.097,0.098,0.095,0.257-0.004,0.354l-0.821,0.807l0.943,7.407 c0.018,0.137-0.079,0.262-0.217,0.28C36.688,47.458,36.677,47.458,36.667,47.458z"/><path fill="#472b29" d="M37.942,37.733c-0.064,0-0.13-0.025-0.179-0.075c-0.097-0.098-0.095-0.257,0.004-0.354l2.482-2.438 v-4.283c0-0.138,0.112-0.25,0.25-0.25s0.25,0.112,0.25,0.25v4.388c0,0.067-0.027,0.131-0.075,0.178l-2.558,2.512 C38.069,37.709,38.006,37.733,37.942,37.733z"/><path fill="#472b29" d="M40.5,28.958c-0.138,0-0.25-0.112-0.25-0.25V26.5c0-0.138,0.112-0.25,0.25-0.25 s0.25,0.112,0.25,0.25v2.208C40.75,28.846,40.638,28.958,40.5,28.958z"/><path fill="#472b29" d="M46.958,47c-0.125,0-0.232-0.093-0.248-0.219l-0.271-2.164c-0.018-0.137,0.08-0.262,0.217-0.279 c0.148-0.016,0.263,0.081,0.279,0.217l0.271,2.164c0.018,0.137-0.08,0.262-0.217,0.279C46.979,46.999,46.968,47,46.958,47z"/><path fill="#472b29" d="M46.468,43.077c-0.125,0-0.232-0.093-0.248-0.219l-0.51-4.077c-0.018-0.137,0.08-0.262,0.217-0.279 c0.144-0.019,0.263,0.081,0.279,0.217l0.51,4.077c0.018,0.137-0.08,0.262-0.217,0.279C46.488,43.076,46.478,43.077,46.468,43.077z"/><path fill="#472b29" d="M52.111,33.5c-0.027,0-0.054-0.002-0.081-0.006c-0.272-0.044-0.458-0.301-0.413-0.573L52.413,28 h-2.415c-0.276,0-0.5-0.224-0.5-0.5s0.224-0.5,0.5-0.5H53c0.146,0,0.286,0.064,0.381,0.176c0.095,0.112,0.136,0.259,0.112,0.404 l-0.89,5.5C52.564,33.325,52.352,33.5,52.111,33.5z"/><path fill="#472b29" d="M61,62.375c-0.028,0-0.057-0.005-0.085-0.015l-1.463-0.528c-0.13-0.047-0.197-0.19-0.15-0.32 c0.048-0.13,0.189-0.197,0.32-0.15l1.463,0.528c0.13,0.047,0.197,0.19,0.15,0.32C61.198,62.312,61.103,62.375,61,62.375z"/><path fill="#472b29" d="M57.95,61.273c-0.028,0-0.057-0.005-0.085-0.015l-1.45-0.523c-0.046-0.017-0.086-0.046-0.115-0.085 l-3-4c-0.032-0.043-0.05-0.096-0.05-0.15v-7c0-0.138,0.112-0.25,0.25-0.25s0.25,0.112,0.25,0.25v6.917l2.905,3.874l1.38,0.498 c0.13,0.047,0.197,0.19,0.15,0.32C58.148,61.21,58.053,61.273,57.95,61.273z"/><polygon fill="#eab436" points="58.01,72.571 56.017,70 50,70 43.958,70 41.958,72.571 38.958,70 38.958,73.429 40.958,76 44.958,74.286 46.958,74.286 47.958,73.429 50,73.429 52.031,73.429 53.028,74.286 55.021,74.286 59.007,76 61,73.429 61,70"/><path fill="#472b29" d="M40.958,76.5c-0.15,0-0.298-0.068-0.395-0.193l-2-2.572c-0.068-0.088-0.105-0.196-0.105-0.307V70 c0-0.195,0.113-0.373,0.291-0.454c0.175-0.082,0.386-0.052,0.534,0.075l2.603,2.23l1.678-2.157 c0.095-0.122,0.24-0.193,0.395-0.193h12.06c0.154,0,0.301,0.072,0.396,0.194l1.671,2.156l2.59-2.229 c0.148-0.127,0.354-0.157,0.535-0.075C61.386,69.627,61.5,69.805,61.5,70v3.428c0,0.111-0.037,0.219-0.104,0.306l-1.993,2.572 c-0.141,0.18-0.385,0.243-0.593,0.153l-3.892-1.674h-1.891c-0.12,0-0.235-0.043-0.326-0.121l-0.855-0.736h-3.703l-0.859,0.737 c-0.091,0.078-0.206,0.12-0.325,0.12h-1.897l-3.905,1.674C41.091,76.487,41.024,76.5,40.958,76.5z M39.458,73.257l1.658,2.132 l3.645-1.562c0.063-0.027,0.13-0.041,0.197-0.041h1.815l0.859-0.737c0.091-0.078,0.206-0.12,0.325-0.12h4.073 c0.12,0,0.235,0.043,0.326,0.121l0.855,0.736h1.808c0.068,0,0.135,0.014,0.197,0.041l3.631,1.561l1.651-2.13V71.09l-2.163,1.861 c-0.104,0.089-0.237,0.133-0.376,0.118c-0.137-0.014-0.262-0.083-0.346-0.191L55.772,70.5h-11.57l-1.85,2.378 c-0.084,0.108-0.208,0.177-0.345,0.191c-0.134,0.015-0.271-0.029-0.375-0.118l-2.175-1.864V73.257z"/><polygon fill="#472b29" points="37.542,73.277 35.473,70.121 31.473,54.121 32.443,53.879 36.422,69.795 38.374,72.723"/><path fill="#472b29" d="M42.639,68.915c-1.157-3.344-2.802-5.277-4.706-7.515c-1.123-1.32-2.396-2.815-3.684-4.762 l0.418-0.276c1.271,1.922,2.479,3.341,3.646,4.714c1.937,2.276,3.609,4.242,4.798,7.676L42.639,68.915z"/><path fill="#472b29" d="M34.458,56.75c-0.08,0-0.16-0.039-0.208-0.111c-0.076-0.115-0.046-0.27,0.069-0.347l2.889-1.926 V52.5c0-0.138,0.112-0.25,0.25-0.25s0.25,0.112,0.25,0.25v2c0,0.083-0.042,0.162-0.111,0.208l-3,2 C34.554,56.736,34.506,56.75,34.458,56.75z"/><path fill="#472b29" d="M47.854,33.5c-0.24,0-0.452-0.174-0.492-0.419l-0.897-5.5c-0.024-0.145,0.018-0.293,0.112-0.404 C46.672,27.064,46.812,27,46.958,27h3.04c0.276,0,0.5,0.224,0.5,0.5s-0.224,0.5-0.5,0.5h-2.452l0.803,4.919 c0.045,0.273-0.14,0.53-0.413,0.574C47.909,33.498,47.882,33.5,47.854,33.5z"/><path fill="#472b29" d="M52.5,25h-4.542c-0.276,0-0.5-0.224-0.5-0.5s0.224-0.5,0.5-0.5H52.5c0.276,0,0.5,0.224,0.5,0.5 S52.776,25,52.5,25z"/><path fill="#472b29" d="M39,62.375c-0.103,0-0.198-0.063-0.235-0.165c-0.047-0.13,0.021-0.273,0.15-0.32l4.43-1.6 l1.255-1.674c0.083-0.111,0.242-0.132,0.351-0.05c0.11,0.083,0.133,0.24,0.05,0.35l-1.3,1.733 c-0.029,0.039-0.069,0.069-0.115,0.085l-4.5,1.625C39.057,62.37,39.028,62.375,39,62.375z"/><path fill="#472b29" d="M45.78,57.71c-0.053,0-0.105-0.016-0.15-0.05c-0.11-0.083-0.133-0.24-0.05-0.35l0.67-0.893V49.5 c0-0.138,0.112-0.25,0.25-0.25s0.25,0.112,0.25,0.25v7c0,0.054-0.018,0.107-0.05,0.15l-0.72,0.96 C45.932,57.676,45.856,57.71,45.78,57.71z"/><path fill="#836f61" d="M53,49l1,4h6.921c0.7,0,1.382-0.227,1.943-0.647L66,50l-1-4C65,46,61,49,53,49z"/><path fill="#472b29" d="M60.921,53.25H54c-0.114,0-0.215-0.078-0.242-0.189l-1-4c-0.019-0.075-0.002-0.154,0.045-0.214 c0.048-0.061,0.12-0.096,0.197-0.096c7.826,0,11.811-2.92,11.85-2.95c0.067-0.051,0.154-0.064,0.234-0.036 c0.078,0.028,0.139,0.094,0.158,0.175l1,4c0.024,0.097-0.012,0.2-0.092,0.26l-3.137,2.353C62.413,53.002,61.67,53.25,60.921,53.25 z M54.195,52.75h6.726c0.642,0,1.278-0.212,1.792-0.597l3.004-2.253l-0.872-3.492c-1.065,0.682-4.873,2.775-11.525,2.841 L54.195,52.75z"/><g><path fill="#edf7f5" d="M53.75,50.167c3.553-0.186,7.936-1.352,10.333-2.542l0.667,2L62,51c-2.308,0.545-5.05,0.834-8,1 L53.75,50.167z"/></g><g><path fill="#836f61" d="M46.958,49l-1,4h-6.921c-0.7,0-1.382-0.227-1.942-0.647L33.958,50l1-4 C34.958,46,38.958,49,46.958,49z"/><path fill="#472b29" d="M45.958,53.25h-6.921c-0.749,0-1.492-0.248-2.093-0.698L33.808,50.2 c-0.08-0.06-0.116-0.163-0.092-0.26l1-4c0.02-0.081,0.08-0.147,0.158-0.175c0.08-0.029,0.168-0.015,0.233,0.035 c0.04,0.03,4.04,2.95,11.851,2.95c0.077,0,0.149,0.035,0.197,0.096c0.047,0.061,0.063,0.14,0.045,0.214l-1,4 C46.173,53.172,46.072,53.25,45.958,53.25z M34.241,49.9l3.004,2.253c0.514,0.385,1.15,0.597,1.792,0.597h6.726l0.876-3.501 c-6.652-0.065-10.46-2.159-11.525-2.841L34.241,49.9z"/></g><g><path fill="#edf7f5" d="M46.208,50.167c-3.553-0.186-7.936-1.352-10.333-2.542l-0.667,2L37.958,51 c2.308,0.545,5.05,0.834,8,1L46.208,50.167z"/></g></g></svg>